<svg width="24" height="24" viewBox="0 0 24 24" fill="none" xmlns="http://www.w3.org/2000/svg">
<g clip-path="url(#clip0_15897_18684)">
<path d="M12.0934 6.67251C12.5076 7.10835 13.1379 7.81073 13.7611 8.66079C15.0217 10.3861 15.6917 11.9494 15.6917 13.1812C15.6917 15.1011 14.2653 16.7364 12.4355 16.9201H11.744C9.91418 16.7364 8.48781 15.1047 8.48781 13.1812C8.48781 11.0561 10.6346 8.22856 12.0934 6.67251ZM12.0898 5.30017C11.9889 5.30017 11.8881 5.33619 11.8124 5.41183C11.6323 5.58833 7.40723 9.75578 7.40723 13.1776C7.40723 15.7062 9.29825 17.7881 11.6935 17.997H12.486C14.8813 17.7881 16.7723 15.7098 16.7723 13.1776C16.7723 9.61531 12.5436 5.57752 12.3635 5.40463C12.2879 5.33259 12.1906 5.29657 12.0934 5.29657L12.0898 5.30017Z" fill="#2360FD"/>
<path d="M12.0896 17.9496C11.7906 17.9496 11.5493 17.7083 11.5493 17.4093V9.12483C11.5493 8.82586 11.7906 8.58453 12.0896 8.58453C12.3886 8.58453 12.6299 8.82586 12.6299 9.12483V17.4093C12.6299 17.7083 12.3886 17.9496 12.0896 17.9496Z" fill="#2360FD"/>
<path d="M12.0858 15.4301C11.9525 15.4301 11.8229 15.3832 11.7184 15.286C11.4987 15.0807 11.4879 14.7421 11.6932 14.5224L14.2146 11.8245C14.4163 11.6048 14.7621 11.594 14.9782 11.7993C15.1979 12.0046 15.2087 12.3432 15.0034 12.5629L12.482 15.2608C12.374 15.376 12.2299 15.4337 12.0858 15.4337V15.4301Z" fill="#2360FD"/>
<path d="M12.0895 15.4297C11.9454 15.4297 11.8013 15.3721 11.6933 15.2568L9.1719 12.559C8.96659 12.3393 8.981 12.0007 9.19711 11.7954C9.41323 11.5901 9.75542 11.6045 9.96073 11.8206L12.4821 14.5184C12.6874 14.7382 12.673 15.0767 12.4569 15.2821C12.3524 15.3793 12.2191 15.4261 12.0895 15.4261V15.4297Z" fill="#2360FD"/>
<path d="M12.0896 2.59822C12.1184 2.59822 12.1437 2.60543 12.1653 2.62344C12.8857 3.1061 14.7118 4.29114 16.0698 4.89987C17.3233 5.46177 18.746 5.80396 19.4844 5.95524C19.488 5.95524 19.5817 5.97685 19.5889 6.0561C19.6573 6.75487 19.805 8.60267 19.6753 10.6486C19.5204 13.1051 19.0378 15.0394 18.2382 16.3973C16.2787 19.7327 12.7812 21.087 12.0968 21.3248H12.0752C11.3945 21.087 7.89696 19.7327 5.9339 16.3937C5.13426 15.0358 4.6516 13.1015 4.49672 10.645C4.37425 8.67471 4.49672 6.92056 4.58316 6.05249C4.59037 5.97325 4.68402 5.95164 4.68762 5.95164C5.42602 5.80036 6.84879 5.45817 8.09867 4.89627C9.4566 4.28754 11.2828 3.1025 12.0032 2.61984C12.0248 2.60543 12.05 2.59822 12.0788 2.59822M12.0788 1.51764C11.8447 1.51764 11.607 1.58608 11.4017 1.72295C10.6597 2.21642 8.91991 3.34383 7.65203 3.91294C6.4886 4.43522 5.14507 4.75579 4.4643 4.89627C3.96723 4.99712 3.55661 5.40414 3.50258 5.94804C3.41974 6.77288 3.28286 8.63149 3.41253 10.7134C3.5422 12.7809 3.94202 15.151 4.99379 16.9412C7.13334 20.5828 10.8578 22.0451 11.7078 22.3441C11.8267 22.3873 11.9528 22.4053 12.0752 22.4053C12.1977 22.4053 12.3238 22.3837 12.4426 22.3441C13.2927 22.0487 17.0171 20.5864 19.1567 16.9412C20.2084 15.151 20.6082 12.7809 20.7379 10.7134C20.8676 8.63149 20.7271 6.76928 20.6479 5.94804C20.5938 5.40054 20.1796 4.99712 19.6861 4.89627C19.0054 4.75579 17.6582 4.43522 16.4984 3.91294C15.2305 3.34383 13.4908 2.21642 12.7488 1.72295C12.5435 1.58608 12.3093 1.51764 12.0716 1.51764L12.0788 1.51764Z" fill="#2360FD"/>
</g>
<defs>
<clipPath id="clip0_15897_18684">
<rect width="17.437" height="20.8913" fill="white" transform="translate(3.36938 1.51697)"/>
</clipPath>
</defs>
</svg>
