<svg width="16" height="17" viewBox="0 0 16 17" fill="none" xmlns="http://www.w3.org/2000/svg">
<path d="M9.41385 8.75123L15.7069 2.493C15.8944 2.30652 15.9997 2.05361 15.9997 1.7899C15.9997 1.52619 15.8944 1.27328 15.7069 1.08681C15.5193 0.900337 15.265 0.795578 14.9998 0.795578C14.7347 0.795578 14.4804 0.900337 14.2928 1.08681L7.99985 7.34504L1.70685 1.08681C1.614 0.994478 1.50378 0.921236 1.38247 0.871267C1.26117 0.821297 1.13115 0.795578 0.999849 0.795578C0.868547 0.795578 0.738531 0.821297 0.617224 0.871267C0.495916 0.921236 0.385694 0.994478 0.292849 1.08681C0.105341 1.27328 0 1.52619 0 1.7899C0 2.05361 0.105341 2.30652 0.292849 2.493L6.58585 8.75123L0.292849 15.0095C0.105341 15.1959 0 15.4488 0 15.7126C0 15.9763 0.105341 16.2292 0.292849 16.4156C0.480357 16.6021 0.734673 16.7069 0.999849 16.7069C1.26503 16.7069 1.51934 16.6021 1.70685 16.4156L7.99985 10.1574L14.2928 16.4156C14.3855 16.5083 14.4957 16.5819 14.617 16.632C14.7383 16.6822 14.8684 16.7081 14.9998 16.7081C15.1313 16.7081 15.2614 16.6822 15.3827 16.632C15.504 16.5819 15.6142 16.5083 15.7069 16.4156C15.7998 16.3234 15.8735 16.2138 15.9238 16.0931C15.9742 15.9725 16 15.8432 16 15.7126C16 15.5819 15.9742 15.4526 15.9238 15.332C15.8735 15.2113 15.7998 15.1017 15.7069 15.0095L9.41385 8.75123Z" fill="#565656"/>
</svg>
