<svg width="124" height="38" viewBox="0 0 124 38" fill="none" xmlns="http://www.w3.org/2000/svg">
<g clip-path="url(#clip0_10925_47283)">
<path d="M36.3755 0.664139C33.9726 0.666388 31.6622 1.61027 29.9211 3.30102C28.1799 4.99176 27.141 7.30034 27.0187 9.75036V9.75036C27.0048 9.9058 27.0048 10.0612 27.0048 10.2167V11.2624C26.9326 12.2274 26.506 13.129 25.8105 13.7867C25.115 14.4443 24.2018 14.8096 23.2538 14.8092C23.1975 14.8117 23.1417 14.8212 23.0877 14.8375C19.9387 15.031 16.9225 16.2007 14.4418 18.1904C11.9611 20.18 10.1341 22.895 9.20462 25.9727H1.45337C1.45347 26.8766 1.66293 27.7677 2.06465 28.5732C2.46638 29.3787 3.04898 30.0759 3.7649 30.6077C3.04898 31.1395 2.46638 31.8366 2.06465 32.6422C1.66293 33.4477 1.45347 34.3387 1.45337 35.2427H32.5276C36.0256 35.2412 39.3799 33.8218 41.8534 31.2967C44.3268 28.7715 45.7171 25.347 45.7185 21.7758V10.2308C45.7218 8.97594 45.4826 7.73273 45.0146 6.57238C44.5465 5.41203 43.8589 4.35733 42.991 3.46869C42.1232 2.58004 41.0921 1.87491 39.9569 1.39366C38.8217 0.912412 37.6047 0.664506 36.3755 0.664139V0.664139Z" fill="#645AFF"/>
<path d="M30.4232 25.6336C30.4224 24.5251 30.7186 23.4374 31.2797 22.4884C31.8408 21.5394 32.6456 20.7652 33.6068 20.2497V17.3245C33.6057 17.0925 33.5149 16.8703 33.3542 16.7063C33.1935 16.5422 32.9759 16.4495 32.7486 16.4484H22.3952C22.1679 16.4495 21.9502 16.5422 21.7895 16.7063C21.6288 16.8703 21.5381 17.0925 21.537 17.3245V29.6044C21.5381 29.8364 21.6288 30.0586 21.7895 30.2227C21.9502 30.3867 22.1679 30.4794 22.3952 30.4805H32.7901C32.0554 29.9145 31.4592 29.1821 31.0485 28.3411C30.6378 27.5001 30.4238 26.5733 30.4232 25.6336V25.6336Z" fill="white"/>
<path d="M27.5588 22.3409C26.6458 22.3372 25.7713 21.9653 25.1257 21.3062C24.4802 20.6472 24.1159 19.7543 24.1122 18.8223H24.9704C24.9704 19.5231 25.2431 20.1953 25.7285 20.6908C26.2139 21.1864 26.8723 21.4648 27.5588 21.4648C28.2453 21.4648 28.9036 21.1864 29.389 20.6908C29.8744 20.1953 30.1471 19.5231 30.1471 18.8223H31.0053C31.0064 19.2847 30.918 19.7427 30.7452 20.1701C30.5724 20.5975 30.3186 20.9859 29.9983 21.3128C29.678 21.6398 29.2977 21.8989 28.879 22.0753C28.4604 22.2518 28.0117 22.342 27.5588 22.3409V22.3409Z" fill="#645AFF"/>
<path d="M38.7289 11.3897H38.1475C37.8584 11.3901 37.5721 11.3322 37.3049 11.2194C37.0377 11.1066 36.795 10.9412 36.5905 10.7324C36.3861 10.5237 36.224 10.2759 36.1135 10.0031C36.0031 9.73036 35.9464 9.43803 35.9467 9.14287V8.54936H36.8049V9.14287C36.8053 9.50628 36.9469 9.85471 37.1986 10.1117C37.4503 10.3687 37.7916 10.5132 38.1475 10.5136H38.7289C39.0849 10.5132 39.4262 10.3687 39.6779 10.1117C39.9296 9.85471 40.0712 9.50628 40.0715 9.14287V8.54936H40.9297V9.14287C40.9301 9.43803 40.8734 9.73036 40.7629 10.0031C40.6524 10.2759 40.4903 10.5237 40.2859 10.7324C40.0815 10.9412 39.8387 11.1066 39.5715 11.2194C39.3044 11.3322 39.018 11.3901 38.7289 11.3897V11.3897Z" fill="white"/>
<path d="M34.59 11.3897H34.0087C33.7196 11.3901 33.4332 11.3322 33.166 11.2194C32.8988 11.1066 32.6561 10.9412 32.4517 10.7324C32.2472 10.5237 32.0851 10.2759 31.9746 10.0031C31.8642 9.73036 31.8075 9.43803 31.8079 9.14287V8.54936H32.666V9.14287C32.6664 9.50628 32.808 9.85471 33.0597 10.1117C33.3114 10.3687 33.6527 10.5132 34.0087 10.5136H34.59C34.946 10.5132 35.2873 10.3687 35.539 10.1117C35.7907 9.85471 35.9323 9.50628 35.9326 9.14287V8.54936H36.7908V9.14287C36.7925 9.43839 36.7367 9.73132 36.6267 10.0047C36.5166 10.278 36.3546 10.5264 36.1499 10.7354C35.9452 10.9443 35.7019 11.1098 35.4342 11.2221C35.1664 11.3344 34.8795 11.3914 34.59 11.3897Z" fill="white"/>
<path d="M36.3755 9.63707C36.9718 9.63707 37.4552 9.14358 37.4552 8.53485C37.4552 7.92611 36.9718 7.43263 36.3755 7.43263C35.7793 7.43263 35.2959 7.92611 35.2959 8.53485C35.2959 9.14358 35.7793 9.63707 36.3755 9.63707Z" fill="white"/>
<path d="M68.1283 21.6064C67.3827 21.1264 66.5773 20.751 65.7337 20.49C64.73 20.173 63.7085 19.9181 62.6747 19.7269C62.0213 19.618 61.3743 19.4717 60.7369 19.2889C60.2386 19.1193 59.8511 18.9497 59.5881 18.7378C59.355 18.6065 59.163 18.4105 59.0344 18.1725C58.9261 17.9333 58.8694 17.673 58.8683 17.4095C58.8653 17.1438 58.9272 16.8816 59.0483 16.6464C59.1891 16.3814 59.394 16.1577 59.6434 15.9964C59.956 15.7632 60.3079 15.5907 60.6816 15.4876C61.1784 15.3555 61.6908 15.2937 62.2041 15.3039C62.7633 15.2934 63.3202 15.3794 63.8513 15.5583C64.26 15.6955 64.6368 15.9168 64.9586 16.2083C65.1945 16.4193 65.3833 16.6795 65.5122 16.9714C65.6367 17.2507 65.6982 17.5549 65.6922 17.8616C65.6918 17.8914 65.6973 17.921 65.7083 17.9486C65.7193 17.9762 65.7356 18.0013 65.7562 18.0224C65.7769 18.0434 65.8014 18.0601 65.8285 18.0713C65.8555 18.0825 65.8845 18.0881 65.9137 18.0877H69.9138C69.943 18.0881 69.972 18.0825 69.999 18.0713C70.0261 18.0601 70.0506 18.0434 70.0713 18.0224C70.0919 18.0013 70.1082 17.9762 70.1192 17.9486C70.1302 17.921 70.1357 17.8914 70.1353 17.8616C70.1445 17.0224 69.9545 16.1933 69.5817 15.4452C69.1906 14.6926 68.6482 14.0329 67.9899 13.5093C67.2367 12.923 66.3821 12.4868 65.4707 12.2234C64.4019 11.8997 63.2913 11.7425 62.1764 11.7571C61.1113 11.7381 60.0502 11.8955 59.0344 12.2234C58.1628 12.4813 57.346 12.903 56.626 13.4669C55.9748 13.956 55.4402 14.5887 55.0619 15.3181C54.6979 16.0086 54.5077 16.7807 54.5082 17.5649C54.4922 18.3331 54.6837 19.0909 55.0619 19.7552C55.4496 20.3896 55.9636 20.9336 56.5706 21.352C57.277 21.8529 58.0449 22.2567 58.8545 22.5531C59.8053 22.8891 60.7762 23.1629 61.7612 23.3727C62.4591 23.4944 63.1482 23.6644 63.8236 23.8814C64.2762 24.0145 64.7127 24.1994 65.1247 24.4326C65.3721 24.5995 65.584 24.8158 65.7476 25.0684C65.8719 25.2921 65.9341 25.5462 65.9275 25.8032C65.93 26.0446 65.8729 26.2828 65.7614 26.4957C65.6385 26.7317 65.4631 26.935 65.2493 27.0892C64.9051 27.3474 64.5148 27.5346 64.1004 27.6403C63.5263 27.7905 62.9351 27.8618 62.3425 27.8522C61.8504 27.8486 61.3595 27.8013 60.8753 27.7109C60.4273 27.6259 59.9995 27.4532 59.6158 27.2022C59.2405 26.9866 58.9223 26.6811 58.6884 26.312C58.446 25.9104 58.3034 25.4544 58.2731 24.9837C58.2735 24.9539 58.268 24.9243 58.257 24.8967C58.246 24.8691 58.2297 24.844 58.2091 24.8229C58.1885 24.8019 58.1639 24.7852 58.1369 24.774C58.1098 24.7628 58.0809 24.7572 58.0517 24.7576H54.176C54.1157 24.7546 54.0565 24.7748 54.0099 24.8141C53.9898 24.837 53.9746 24.8638 53.965 24.893C53.9555 24.9222 53.9519 24.953 53.9546 24.9837C53.9567 25.8036 54.1463 26.6116 54.5082 27.3435C54.9062 28.1357 55.4626 28.8338 56.1415 29.3925C56.915 30.0285 57.7973 30.5124 58.7437 30.8197C59.8883 31.1963 61.0847 31.3823 62.2872 31.3709C63.3899 31.3818 64.4888 31.2392 65.5538 30.9469C66.4573 30.706 67.314 30.3094 68.0868 29.7741C68.7669 29.2992 69.3305 28.6705 69.7339 27.937C70.1259 27.215 70.3307 26.4027 70.3291 25.5772C70.3291 24.6869 70.1492 23.9097 69.7754 23.2879C69.3238 22.6361 68.7668 22.0674 68.1283 21.6064V21.6064Z" fill="black"/>
<path d="M86.9665 14.3711C86.2497 13.5375 85.361 12.8764 84.3642 12.4351C83.2431 11.9554 82.0363 11.7196 80.8208 11.7427C79.6603 11.7333 78.5104 11.969 77.4435 12.4351C76.3903 12.8878 75.4423 13.5618 74.6613 14.4135C73.8411 15.3063 73.1973 16.3523 72.7651 17.494C72.298 18.7726 72.068 20.1287 72.0868 21.4931V22.1855C72.0772 23.4239 72.3028 24.6524 72.7512 25.803C73.175 26.8957 73.8159 27.8869 74.6337 28.714C75.4739 29.5548 76.472 30.2134 77.5681 30.65C78.7633 31.1244 80.0368 31.3595 81.3191 31.3424C83.1185 31.3424 84.6549 30.9891 85.9422 30.2402C87.2018 29.5195 88.1707 28.6999 88.7935 27.7814C88.8213 27.7339 88.8348 27.6791 88.8323 27.6238C88.8298 27.5686 88.8116 27.5152 88.7797 27.4705L86.6343 25.365C86.6097 25.3434 86.581 25.3273 86.5501 25.3175C86.5191 25.3078 86.4865 25.3047 86.4543 25.3085C86.391 25.3163 86.3324 25.3463 86.2882 25.3932C85.7502 26.0955 85.0449 26.6452 84.2397 26.99C83.3943 27.3719 82.4788 27.5646 81.5544 27.5553C80.8973 27.5592 80.2451 27.4395 79.6304 27.202C79.0597 26.9815 78.5444 26.6339 78.1217 26.1846C77.7065 25.7883 77.3643 25.3193 77.1113 24.7997C76.8594 24.2387 76.687 23.644 76.5992 23.0334H88.8766C88.9058 23.0337 88.9347 23.0282 88.9618 23.0169C88.9888 23.0057 89.0134 22.9891 89.034 22.968C89.0547 22.9469 89.0709 22.9218 89.0819 22.8942C89.0929 22.8666 89.0984 22.8371 89.098 22.8073V21.055C89.1093 19.7904 88.9272 18.5317 88.5582 17.3245C88.2155 16.246 87.6753 15.2438 86.9665 14.3711ZM76.6822 19.5995C76.7939 19.0648 76.9609 18.5438 77.1805 18.0451C77.4131 17.5424 77.7213 17.0799 78.094 16.6744C78.4433 16.315 78.8568 16.0272 79.3121 15.8266C79.7831 15.6334 80.2856 15.5327 80.7931 15.5298C81.3695 15.5107 81.9424 15.6267 82.468 15.869C82.9166 16.066 83.318 16.3601 83.6445 16.7309C83.9736 17.1134 84.2315 17.554 84.4058 18.031C84.5788 18.5156 84.6678 19.0272 84.6688 19.543V19.5854H76.6822V19.5995Z" fill="black"/>
<path d="M105.943 14.3711C105.226 13.5375 104.338 12.8764 103.341 12.4351C102.22 11.9554 101.013 11.7196 99.7974 11.7427C98.6369 11.7333 97.487 11.969 96.4201 12.4351C95.3669 12.8878 94.4189 13.5618 93.6379 14.4135C92.8177 15.3063 92.1739 16.3523 91.7416 17.494C91.2746 18.7726 91.0446 20.1287 91.0634 21.4931V22.1855C91.0538 23.4239 91.2794 24.6524 91.7278 25.803C92.1516 26.8957 92.7925 27.8869 93.6102 28.714C94.4504 29.5548 95.4486 30.2134 96.5447 30.65C97.7399 31.1244 99.0134 31.3595 100.296 31.3424C102.095 31.3424 103.632 30.9891 104.919 30.2402C106.178 29.5195 107.147 28.6999 107.77 27.7814C107.798 27.7339 107.811 27.6791 107.809 27.6238C107.806 27.5686 107.788 27.5152 107.756 27.4705L105.611 25.365C105.586 25.3434 105.558 25.3273 105.527 25.3175C105.496 25.3078 105.463 25.3047 105.431 25.3085C105.368 25.3163 105.309 25.3463 105.265 25.3932C104.727 26.0955 104.022 26.6452 103.216 26.99C102.371 27.3719 101.455 27.5646 100.531 27.5553C99.8739 27.5592 99.2217 27.4395 98.607 27.202C98.0363 26.9815 97.5209 26.6339 97.0983 26.1846C96.6831 25.7883 96.3409 25.3193 96.0879 24.7997C95.836 24.2387 95.6636 23.644 95.5757 23.0334H107.825C107.855 23.0337 107.884 23.0282 107.911 23.0169C107.938 23.0057 107.962 22.9891 107.983 22.968C108.004 22.9469 108.02 22.9218 108.031 22.8942C108.042 22.8666 108.047 22.8371 108.047 22.8073V21.055C108.058 19.7904 107.876 18.5317 107.507 17.3245C107.191 16.2404 106.658 15.2348 105.943 14.3711ZM95.6726 19.5995C95.7843 19.0648 95.9514 18.5438 96.1709 18.0451C96.4035 17.5424 96.7118 17.0799 97.0845 16.6744C97.4338 16.315 97.8472 16.0272 98.3025 15.8266C98.7735 15.6334 99.276 15.5327 99.7836 15.5298C100.36 15.5107 100.933 15.6267 101.458 15.869C101.907 16.066 102.308 16.3601 102.635 16.7309C102.964 17.1134 103.222 17.554 103.396 18.031C103.569 18.5156 103.658 19.0272 103.659 19.543V19.5854H95.6726V19.5995Z" fill="black"/>
<path d="M122.843 27.3717H118.095V4.83278C118.093 4.75497 118.061 4.68111 118.007 4.62605C117.953 4.571 117.881 4.53883 117.805 4.53603H108.06C107.984 4.53883 107.912 4.571 107.858 4.62605C107.804 4.68111 107.772 4.75497 107.77 4.83278V8.22421C107.772 8.30202 107.804 8.37588 107.858 8.43093C107.912 8.48599 107.984 8.51815 108.06 8.52096H113.5V27.4H109.832C109.756 27.4028 109.683 27.4349 109.63 27.49C109.576 27.545 109.544 27.6189 109.541 27.6967V31.0599C109.544 31.1377 109.576 31.2115 109.63 31.2666C109.683 31.3217 109.756 31.3538 109.832 31.3566H122.829C122.905 31.3538 122.978 31.3217 123.032 31.2666C123.086 31.2115 123.117 31.1377 123.12 31.0599V27.6967C123.126 27.6562 123.123 27.6148 123.112 27.5755C123.101 27.5362 123.081 27.4998 123.055 27.4688C123.029 27.4379 122.996 27.4132 122.96 27.3965C122.923 27.3797 122.883 27.3712 122.843 27.3717Z" fill="black"/>
</g>
<defs>
<clipPath id="clip0_10925_47283">
<rect width="123.882" height="37.1645" fill="white"/>
</clipPath>
</defs>
</svg>
