<svg width="325" height="48" viewBox="0 0 325 48" fill="none" xmlns="http://www.w3.org/2000/svg">
<g clip-path="url(#clip0_14779_31223)">
<path d="M36.3755 6.66406C33.9726 6.66631 31.6622 7.6102 29.9211 9.30094C28.1799 10.9917 27.141 13.3003 27.0187 15.7503C27.0048 15.9057 27.0048 16.0612 27.0048 16.2166V17.2623C26.9326 18.2273 26.506 19.1289 25.8105 19.7866C25.115 20.4443 24.2018 20.8095 23.2538 20.8092C23.1975 20.8117 23.1417 20.8211 23.0877 20.8374C19.9387 21.0309 16.9225 22.2006 14.4418 24.1903C11.9611 26.18 10.1341 28.8949 9.20462 31.9726H1.45337C1.45347 32.8766 1.66293 33.7676 2.06465 34.5731C2.46638 35.3787 3.04898 36.0758 3.7649 36.6076C3.04898 37.1394 2.46638 37.8366 2.06465 38.6421C1.66293 39.4476 1.45347 40.3387 1.45337 41.2426H32.5276C36.0256 41.2411 39.3799 39.8218 41.8534 37.2966C44.3268 34.7714 45.7171 31.3469 45.7185 27.7757V16.2307C45.7218 14.9759 45.4826 13.7327 45.0146 12.5723C44.5465 11.412 43.8589 10.3573 42.991 9.46861C42.1232 8.57997 41.0921 7.87483 39.9569 7.39358C38.8217 6.91234 37.6047 6.66443 36.3755 6.66406Z" fill="#645AFF"/>
<path d="M30.4231 31.6336C30.4223 30.5251 30.7184 29.4375 31.2796 28.4885C31.8407 27.5395 32.6455 26.7653 33.6067 26.2497V23.3246C33.6056 23.0926 33.5148 22.8704 33.3541 22.7063C33.1934 22.5423 32.9758 22.4496 32.7485 22.4485H22.395C22.1678 22.4496 21.9501 22.5423 21.7894 22.7063C21.6287 22.8704 21.538 23.0926 21.5369 23.3246V35.6044C21.538 35.8364 21.6287 36.0586 21.7894 36.2227C21.9501 36.3868 22.1678 36.4794 22.395 36.4806H32.79C32.0552 35.9145 31.4591 35.1822 31.0484 34.3412C30.6377 33.5002 30.4236 32.5734 30.4231 31.6336Z" fill="white"/>
<path d="M27.5588 28.3409C26.6459 28.3372 25.7714 27.9653 25.1258 27.3062C24.4802 26.6471 24.1159 25.7543 24.1123 24.8223H24.9705C24.9705 25.5231 25.2432 26.1952 25.7286 26.6908C26.214 27.1864 26.8724 27.4648 27.5588 27.4648C28.2453 27.4648 28.9037 27.1864 29.3891 26.6908C29.8745 26.1952 30.1472 25.5231 30.1472 24.8223H31.0054C31.0065 25.2847 30.9181 25.7427 30.7453 26.1701C30.5724 26.5975 30.3186 26.9858 29.9984 27.3128C29.6781 27.6397 29.2977 27.8989 28.8791 28.0753C28.4604 28.2517 28.0118 28.342 27.5588 28.3409Z" fill="#645AFF"/>
<path d="M38.7289 17.3896H38.1476C37.8585 17.39 37.5721 17.3322 37.3049 17.2194C37.0378 17.1066 36.795 16.9411 36.5906 16.7324C36.3861 16.5237 36.224 16.2758 36.1136 16.0031C36.0031 15.7303 35.9464 15.438 35.9468 15.1428V14.5493H36.805V15.1428C36.8053 15.5062 36.9469 15.8547 37.1986 16.1116C37.4503 16.3686 37.7916 16.5131 38.1476 16.5135H38.7289C39.0849 16.5131 39.4262 16.3686 39.6779 16.1116C39.9296 15.8547 40.0712 15.5062 40.0715 15.1428V14.5493H40.9297V15.1428C40.9301 15.438 40.8734 15.7303 40.7629 16.0031C40.6525 16.2758 40.4904 16.5237 40.2859 16.7324C40.0815 16.9411 39.8387 17.1066 39.5716 17.2194C39.3044 17.3322 39.018 17.39 38.7289 17.3896Z" fill="white"/>
<path d="M34.59 17.3896H34.0087C33.7196 17.39 33.4332 17.3322 33.166 17.2194C32.8988 17.1066 32.6561 16.9411 32.4517 16.7324C32.2472 16.5237 32.0851 16.2758 31.9746 16.0031C31.8642 15.7303 31.8075 15.438 31.8079 15.1428V14.5493H32.666V15.1428C32.6664 15.5062 32.808 15.8547 33.0597 16.1116C33.3114 16.3686 33.6527 16.5131 34.0087 16.5135H34.59C34.946 16.5131 35.2873 16.3686 35.539 16.1116C35.7907 15.8547 35.9323 15.5062 35.9326 15.1428V14.5493H36.7908V15.1428C36.7925 15.4383 36.7367 15.7313 36.6267 16.0046C36.5166 16.278 36.3546 16.5263 36.1499 16.7353C35.9452 16.9443 35.7019 17.1097 35.4342 17.2221C35.1664 17.3344 34.8795 17.3913 34.59 17.3896Z" fill="white"/>
<path d="M36.3755 15.6371C36.9718 15.6371 37.4552 15.1436 37.4552 14.5348C37.4552 13.9261 36.9718 13.4326 36.3755 13.4326C35.7793 13.4326 35.2959 13.9261 35.2959 14.5348C35.2959 15.1436 35.7793 15.6371 36.3755 15.6371Z" fill="white"/>
<path d="M68.1282 27.6064C67.3825 27.1265 66.5772 26.7511 65.7336 26.4901C64.7299 26.1731 63.7084 25.9182 62.6746 25.727C62.0212 25.6181 61.3742 25.4718 60.7368 25.289C60.2385 25.1194 59.8509 24.9498 59.588 24.7379C59.3548 24.6066 59.1629 24.4106 59.0343 24.1726C58.9259 23.9334 58.8693 23.6731 58.8682 23.4095C58.8652 23.1439 58.9271 22.8816 59.0481 22.6465C59.189 22.3815 59.3939 22.1578 59.6433 21.9964C59.9558 21.7633 60.3077 21.5908 60.6814 21.4877C61.1783 21.3556 61.6906 21.2938 62.204 21.304C62.7632 21.2935 63.32 21.3795 63.8511 21.5584C64.2598 21.6956 64.6367 21.9168 64.9585 22.2084C65.1944 22.4194 65.3832 22.6796 65.5121 22.9715C65.6366 23.2508 65.6981 23.555 65.6921 23.8617C65.6917 23.8915 65.6972 23.9211 65.7082 23.9487C65.7192 23.9763 65.7355 24.0014 65.7561 24.0225C65.7767 24.0435 65.8013 24.0602 65.8283 24.0714C65.8554 24.0826 65.8843 24.0882 65.9135 24.0878H69.9137C69.9429 24.0882 69.9719 24.0826 69.9989 24.0714C70.026 24.0602 70.0505 24.0435 70.0712 24.0225C70.0918 24.0014 70.1081 23.9763 70.1191 23.9487C70.1301 23.9211 70.1356 23.8915 70.1352 23.8617C70.1444 23.0225 69.9544 22.1934 69.5815 21.4453C69.1905 20.6927 68.6481 20.033 67.9898 19.5094C67.2366 18.9231 66.3819 18.4869 65.4706 18.2235C64.4017 17.8998 63.2911 17.7425 62.1763 17.7572C61.1112 17.7381 60.0501 17.8956 59.0343 18.2235C58.1627 18.4814 57.3459 18.9031 56.6259 19.467C55.9747 19.956 55.4401 20.5888 55.0618 21.3182C54.6978 22.0087 54.5075 22.7808 54.5081 23.565C54.492 24.3331 54.6836 25.091 55.0618 25.7553C55.4494 26.3897 55.9635 26.9337 56.5705 27.3521C57.2769 27.853 58.0448 28.2568 58.8544 28.5532C59.8052 28.8892 60.7761 29.1629 61.7611 29.3728C62.459 29.4945 63.1481 29.6645 63.8235 29.8815C64.2761 30.0146 64.7126 30.1995 65.1246 30.4326C65.372 30.5996 65.5839 30.8159 65.7474 31.0685C65.8718 31.2922 65.934 31.5463 65.9274 31.8033C65.9299 32.0447 65.8728 32.2829 65.7613 32.4958C65.6384 32.7318 65.463 32.9351 65.2491 33.0893C64.9049 33.3475 64.5147 33.5347 64.1003 33.6404C63.5262 33.7906 62.935 33.8619 62.3424 33.8523C61.8503 33.8487 61.3594 33.8014 60.8752 33.711C60.4271 33.626 59.9994 33.4533 59.6156 33.2023C59.2404 32.9867 58.9221 32.6812 58.6883 32.3121C58.4459 31.9105 58.3033 31.4544 58.273 30.9837C58.2734 30.9539 58.2679 30.9244 58.2569 30.8968C58.2459 30.8692 58.2296 30.8441 58.209 30.823C58.1883 30.802 58.1638 30.7853 58.1367 30.7741C58.1097 30.7629 58.0807 30.7573 58.0515 30.7577H54.1759C54.1156 30.7547 54.0563 30.7748 54.0098 30.8142C53.9897 30.8371 53.9744 30.8639 53.9649 30.8931C53.9554 30.9223 53.9518 30.9531 53.9545 30.9837C53.9566 31.8036 54.1461 32.6117 54.5081 33.3436C54.906 34.1358 55.4625 34.8339 56.1414 35.3926C56.9149 36.0286 57.7972 36.5125 58.7436 36.8198C59.8882 37.1964 61.0846 37.3824 62.287 37.371C63.3897 37.3819 64.4887 37.2393 65.5536 36.947C66.4572 36.7061 67.3139 36.3094 68.0866 35.7742C68.7667 35.2993 69.3304 34.6706 69.7338 33.9371C70.1257 33.2151 70.3306 32.4028 70.329 31.5772C70.329 30.687 70.149 29.9098 69.7753 29.288C69.3237 28.6361 68.7667 28.0675 68.1282 27.6064Z" fill="black"/>
<path d="M86.9664 20.3711C86.2496 19.5376 85.3609 18.8764 84.3642 18.4352C83.243 17.9555 82.0362 17.7197 80.8208 17.7428C79.6603 17.7333 78.5104 17.9691 77.4434 18.4352C76.3902 18.8878 75.4423 19.5619 74.6613 20.4135C73.8411 21.3064 73.1972 22.3523 72.765 23.4941C72.298 24.7726 72.068 26.1287 72.0868 27.4931V28.1856C72.0771 29.4239 72.3027 30.6524 72.7511 31.8031C73.1749 32.8958 73.8159 33.8869 74.6336 34.7141C75.4738 35.5549 76.472 36.2134 77.568 36.65C78.7632 37.1244 80.0368 37.3595 81.3191 37.3424C83.1185 37.3424 84.6549 36.9892 85.9421 36.2402C87.2017 35.5195 88.1706 34.6999 88.7935 33.7814C88.8212 33.7339 88.8347 33.6791 88.8322 33.6239C88.8298 33.5686 88.8115 33.5153 88.7796 33.4705L86.6342 31.365C86.6096 31.3435 86.581 31.3273 86.55 31.3176C86.519 31.3079 86.4864 31.3048 86.4543 31.3085C86.391 31.3164 86.3323 31.3463 86.2882 31.3933C85.7502 32.0955 85.0449 32.6453 84.2396 32.9901C83.3943 33.3719 82.4787 33.5647 81.5544 33.5553C80.8972 33.5593 80.245 33.4395 79.6304 33.2021C79.0597 32.9816 78.5443 32.634 78.1217 32.1846C77.7065 31.7884 77.3643 31.3193 77.1112 30.7998C76.8594 30.2388 76.6869 29.644 76.5991 29.0334H88.8765C88.9057 29.0338 88.9347 29.0282 88.9617 29.017C88.9887 29.0057 89.0133 28.9891 89.034 28.968C89.0546 28.947 89.0709 28.9219 89.0819 28.8943C89.0929 28.8667 89.0984 28.8371 89.098 28.8073V27.0551C89.1093 25.7904 88.9271 24.5318 88.5582 23.3245C88.2154 22.2461 87.6753 21.2439 86.9664 20.3711ZM76.6821 25.5996C76.7938 25.0649 76.9609 24.5438 77.1804 24.0452C77.413 23.5424 77.7213 23.0799 78.094 22.6745C78.4433 22.3151 78.8567 22.0273 79.312 21.8266C79.783 21.6334 80.2855 21.5328 80.7931 21.5299C81.3694 21.5108 81.9423 21.6268 82.4679 21.869C82.9165 22.0661 83.3179 22.3602 83.6444 22.731C83.9735 23.1135 84.2315 23.5541 84.4057 24.031C84.5788 24.5156 84.6678 25.0273 84.6687 25.5431V25.5855H76.6821V25.5996Z" fill="black"/>
<path d="M105.943 20.3711C105.226 19.5376 104.338 18.8764 103.341 18.4352C102.22 17.9555 101.013 17.7197 99.7973 17.7428C98.6368 17.7333 97.4869 17.9691 96.42 18.4352C95.3668 18.8878 94.4188 19.5619 93.6378 20.4135C92.8176 21.3064 92.1738 22.3523 91.7416 23.4941C91.2745 24.7726 91.0445 26.1287 91.0633 27.4931V28.1856C91.0537 29.4239 91.2793 30.6524 91.7277 31.8031C92.1515 32.8958 92.7924 33.8869 93.6102 34.7141C94.4504 35.5549 95.4485 36.2134 96.5446 36.65C97.7398 37.1244 99.0133 37.3595 100.296 37.3424C102.095 37.3424 103.631 36.9892 104.919 36.2402C106.178 35.5195 107.147 34.6999 107.77 33.7814C107.798 33.7339 107.811 33.6791 107.809 33.6239C107.806 33.5686 107.788 33.5153 107.756 33.4705L105.611 31.365C105.586 31.3435 105.558 31.3273 105.527 31.3176C105.496 31.3079 105.463 31.3048 105.431 31.3085C105.368 31.3164 105.309 31.3463 105.265 31.3933C104.727 32.0955 104.021 32.6453 103.216 32.9901C102.371 33.3719 101.455 33.5647 100.531 33.5553C99.8738 33.5593 99.2216 33.4395 98.607 33.2021C98.0362 32.9816 97.5208 32.634 97.0982 32.1846C96.683 31.7884 96.3408 31.3193 96.0878 30.7998C95.8359 30.2388 95.6635 29.644 95.5757 29.0334H107.825C107.855 29.0338 107.884 29.0282 107.911 29.017C107.938 29.0057 107.962 28.9891 107.983 28.968C108.003 28.947 108.02 28.9219 108.031 28.8943C108.042 28.8667 108.047 28.8371 108.047 28.8073V27.0551C108.058 25.7904 107.876 24.5318 107.507 23.3245C107.191 22.2404 106.658 21.2348 105.943 20.3711ZM95.6725 25.5996C95.7842 25.0649 95.9513 24.5438 96.1708 24.0452C96.4034 23.5424 96.7117 23.0799 97.0844 22.6745C97.4337 22.3151 97.8471 22.0273 98.3024 21.8266C98.7734 21.6334 99.2759 21.5328 99.7835 21.5299C100.36 21.5108 100.933 21.6268 101.458 21.869C101.907 22.0661 102.308 22.3602 102.635 22.731C102.964 23.1135 103.222 23.5541 103.396 24.031C103.569 24.5156 103.658 25.0273 103.659 25.5431V25.5855H95.6725V25.5996Z" fill="black"/>
<path d="M122.843 33.3718H118.095V10.8329C118.093 10.7551 118.061 10.6812 118.007 10.6262C117.953 10.5711 117.881 10.5389 117.805 10.5361H108.06C107.984 10.5389 107.912 10.5711 107.858 10.6262C107.804 10.6812 107.772 10.7551 107.77 10.8329V14.2243C107.772 14.3021 107.804 14.376 107.858 14.431C107.912 14.4861 107.984 14.5183 108.06 14.5211H113.5V33.4001H109.832C109.756 33.4029 109.683 33.435 109.629 33.4901C109.576 33.5451 109.544 33.619 109.541 33.6968V37.06C109.544 37.1378 109.576 37.2117 109.629 37.2667C109.683 37.3218 109.756 37.3539 109.832 37.3567H122.829C122.905 37.3539 122.978 37.3218 123.032 37.2667C123.086 37.2117 123.117 37.1378 123.12 37.06V33.6968C123.126 33.6563 123.123 33.6149 123.112 33.5756C123.101 33.5363 123.081 33.4999 123.055 33.4689C123.029 33.438 122.996 33.4133 122.959 33.3966C122.923 33.3798 122.883 33.3713 122.843 33.3718Z" fill="black"/>
</g>
<path d="M172.357 30.2422C172.357 31.2266 172.139 32.097 171.701 32.8535C171.264 33.61 170.562 34.2025 169.596 34.6309C168.639 35.0592 167.376 35.2734 165.809 35.2734C164.706 35.2734 163.717 35.2142 162.842 35.0957C161.976 34.9772 161.096 34.7493 160.203 34.4121V30.1328C161.178 30.5794 162.172 30.903 163.184 31.1035C164.195 31.2949 164.993 31.3906 165.576 31.3906C166.178 31.3906 166.615 31.3268 166.889 31.1992C167.171 31.0625 167.312 30.862 167.312 30.5977C167.312 30.3698 167.217 30.1784 167.025 30.0234C166.843 29.8594 166.51 29.6725 166.027 29.4629C165.553 29.2533 164.883 28.9707 164.018 28.6152C163.161 28.2598 162.445 27.8724 161.871 27.4531C161.306 27.0339 160.882 26.5326 160.6 25.9492C160.317 25.3659 160.176 24.6504 160.176 23.8027C160.176 22.2897 160.759 21.1504 161.926 20.3848C163.092 19.6191 164.637 19.2363 166.561 19.2363C167.581 19.2363 168.543 19.3503 169.445 19.5781C170.348 19.7969 171.282 20.1204 172.248 20.5488L170.785 23.9941C170.02 23.6478 169.245 23.3698 168.461 23.1602C167.677 22.9505 167.053 22.8457 166.588 22.8457C166.169 22.8457 165.845 22.9004 165.617 23.0098C165.389 23.1191 165.275 23.2786 165.275 23.4883C165.275 23.6797 165.353 23.8483 165.508 23.9941C165.672 24.14 165.977 24.3086 166.424 24.5C166.87 24.6914 167.522 24.9603 168.379 25.3066C169.281 25.6712 170.024 26.0632 170.607 26.4824C171.2 26.8926 171.637 27.3939 171.92 27.9863C172.212 28.5788 172.357 29.3307 172.357 30.2422ZM182.311 19.2363C183.814 19.2363 185.113 19.5007 186.207 20.0293C187.301 20.5488 188.144 21.3327 188.736 22.3809C189.329 23.429 189.625 24.7415 189.625 26.3184V28.6973H180.068C180.114 29.5085 180.415 30.1738 180.971 30.6934C181.536 31.2129 182.365 31.4727 183.459 31.4727C184.425 31.4727 185.309 31.377 186.111 31.1855C186.923 30.9941 187.757 30.6979 188.613 30.2969V34.1387C187.866 34.5306 187.05 34.8177 186.166 35C185.282 35.1823 184.165 35.2734 182.816 35.2734C181.258 35.2734 179.863 34.9954 178.633 34.4395C177.402 33.8835 176.432 33.0221 175.721 31.8555C175.019 30.6888 174.668 29.1895 174.668 27.3574C174.668 25.498 174.987 23.9714 175.625 22.7773C176.263 21.5742 177.156 20.6855 178.305 20.1113C179.453 19.528 180.788 19.2363 182.311 19.2363ZM182.502 22.873C181.873 22.873 181.344 23.0736 180.916 23.4746C180.497 23.8665 180.251 24.4863 180.178 25.334H184.771C184.762 24.8783 184.671 24.4635 184.498 24.0898C184.325 23.7161 184.07 23.4199 183.732 23.2012C183.404 22.9824 182.994 22.873 182.502 22.873ZM201.998 19.2363C202.29 19.2363 202.595 19.2591 202.914 19.3047C203.233 19.3411 203.47 19.373 203.625 19.4004L203.146 24.4453C202.973 24.3997 202.75 24.3633 202.477 24.3359C202.203 24.2995 201.82 24.2812 201.328 24.2812C200.991 24.2812 200.631 24.3132 200.248 24.377C199.865 24.4408 199.501 24.5775 199.154 24.7871C198.817 24.9876 198.539 25.2975 198.32 25.7168C198.102 26.127 197.992 26.6829 197.992 27.3848V35H192.646V19.5098H196.625L197.459 21.9844H197.719C198.001 21.474 198.361 21.0137 198.799 20.6035C199.245 20.1842 199.742 19.8516 200.289 19.6055C200.845 19.3594 201.415 19.2363 201.998 19.2363ZM212.771 19.2363C214.275 19.2363 215.574 19.5007 216.668 20.0293C217.762 20.5488 218.605 21.3327 219.197 22.3809C219.79 23.429 220.086 24.7415 220.086 26.3184V28.6973H210.529C210.575 29.5085 210.876 30.1738 211.432 30.6934C211.997 31.2129 212.826 31.4727 213.92 31.4727C214.886 31.4727 215.77 31.377 216.572 31.1855C217.383 30.9941 218.217 30.6979 219.074 30.2969V34.1387C218.327 34.5306 217.511 34.8177 216.627 35C215.743 35.1823 214.626 35.2734 213.277 35.2734C211.719 35.2734 210.324 34.9954 209.094 34.4395C207.863 33.8835 206.893 33.0221 206.182 31.8555C205.48 30.6888 205.129 29.1895 205.129 27.3574C205.129 25.498 205.448 23.9714 206.086 22.7773C206.724 21.5742 207.617 20.6855 208.766 20.1113C209.914 19.528 211.249 19.2363 212.771 19.2363ZM212.963 22.873C212.334 22.873 211.805 23.0736 211.377 23.4746C210.958 23.8665 210.712 24.4863 210.639 25.334H215.232C215.223 24.8783 215.132 24.4635 214.959 24.0898C214.786 23.7161 214.531 23.4199 214.193 23.2012C213.865 22.9824 213.455 22.873 212.963 22.873ZM232.801 19.2363C234.396 19.2363 235.699 19.6875 236.711 20.5898C237.723 21.4922 238.229 22.9368 238.229 24.9238V35H232.883V26.5508C232.883 25.5208 232.732 24.7461 232.432 24.2266C232.14 23.6979 231.666 23.4336 231.01 23.4336C229.998 23.4336 229.319 23.8483 228.973 24.6777C228.626 25.498 228.453 26.6784 228.453 28.2188V35H223.107V19.5098H227.141L227.865 21.5605H228.07C228.398 21.0684 228.79 20.6491 229.246 20.3027C229.702 19.9564 230.226 19.6921 230.818 19.5098C231.411 19.3275 232.072 19.2363 232.801 19.2363ZM246.678 35.2734C245.083 35.2734 243.77 34.5944 242.74 33.2363C241.71 31.8783 241.195 29.8913 241.195 27.2754C241.195 24.6322 241.724 22.6315 242.781 21.2734C243.839 19.9154 245.206 19.2363 246.883 19.2363C247.576 19.2363 248.173 19.3366 248.674 19.5371C249.175 19.7376 249.608 20.0111 249.973 20.3574C250.346 20.6947 250.67 21.0775 250.943 21.5059H251.053C250.989 21.1139 250.93 20.5762 250.875 19.8926C250.82 19.1999 250.793 18.5254 250.793 17.8691V13.7266H256.18V35H252.146L250.998 33.0449H250.793C250.547 33.4551 250.237 33.8288 249.863 34.166C249.499 34.5033 249.052 34.7721 248.523 34.9727C248.004 35.1732 247.389 35.2734 246.678 35.2734ZM248.865 31.0488C249.722 31.0488 250.324 30.7799 250.67 30.2422C251.025 29.6953 251.217 28.8659 251.244 27.7539V27.3301C251.244 26.1087 251.071 25.1745 250.725 24.5273C250.387 23.8711 249.749 23.543 248.811 23.543C248.173 23.543 247.644 23.8529 247.225 24.4727C246.805 25.0924 246.596 26.054 246.596 27.3574C246.596 28.6426 246.805 29.5814 247.225 30.1738C247.653 30.7572 248.2 31.0488 248.865 31.0488ZM265.258 19.5098V35H259.912V19.5098H265.258ZM262.605 13.2754C263.371 13.2754 264.036 13.4349 264.602 13.7539C265.176 14.0729 265.463 14.7064 265.463 15.6543C265.463 16.5749 265.176 17.1992 264.602 17.5273C264.036 17.8464 263.371 18.0059 262.605 18.0059C261.822 18.0059 261.152 17.8464 260.596 17.5273C260.049 17.1992 259.775 16.5749 259.775 15.6543C259.775 14.7064 260.049 14.0729 260.596 13.7539C261.152 13.4349 261.822 13.2754 262.605 13.2754ZM278.451 19.2363C280.165 19.2363 281.509 19.9245 282.484 21.3008C283.46 22.668 283.947 24.6413 283.947 27.2207C283.947 28.9798 283.701 30.4609 283.209 31.6641C282.717 32.8581 282.042 33.7604 281.186 34.3711C280.338 34.9727 279.372 35.2734 278.287 35.2734C277.558 35.2734 276.938 35.1823 276.428 35C275.926 34.8177 275.507 34.5898 275.17 34.3164C274.842 34.043 274.564 33.765 274.336 33.4824H274.172C274.217 33.8379 274.254 34.2207 274.281 34.6309C274.318 35.041 274.336 35.5195 274.336 36.0664V41.7266H268.99V19.5098H273.338L274.09 21.4785H274.336C274.591 21.0775 274.901 20.7083 275.266 20.3711C275.63 20.0247 276.072 19.7513 276.592 19.5508C277.12 19.3411 277.74 19.2363 278.451 19.2363ZM276.441 23.4336C275.922 23.4336 275.512 23.5566 275.211 23.8027C274.91 24.0488 274.691 24.4225 274.555 24.9238C274.427 25.416 274.354 26.0312 274.336 26.7695V27.1934C274.336 28.0137 274.4 28.7064 274.527 29.2715C274.655 29.8275 274.874 30.2513 275.184 30.543C275.493 30.8255 275.922 30.9668 276.469 30.9668C276.915 30.9668 277.289 30.8392 277.59 30.584C277.891 30.3288 278.118 29.9232 278.273 29.3672C278.428 28.8112 278.506 28.0775 278.506 27.166C278.506 25.8079 278.328 24.8464 277.973 24.2812C277.626 23.7161 277.116 23.4336 276.441 23.4336ZM292.383 19.5098V35H287.037V19.5098H292.383ZM289.73 13.2754C290.496 13.2754 291.161 13.4349 291.727 13.7539C292.301 14.0729 292.588 14.7064 292.588 15.6543C292.588 16.5749 292.301 17.1992 291.727 17.5273C291.161 17.8464 290.496 18.0059 289.73 18.0059C288.947 18.0059 288.277 17.8464 287.721 17.5273C287.174 17.1992 286.9 16.5749 286.9 15.6543C286.9 14.7064 287.174 14.0729 287.721 13.7539C288.277 13.4349 288.947 13.2754 289.73 13.2754ZM303.703 31.0488C304.186 31.0488 304.628 30.9987 305.029 30.8984C305.43 30.7982 305.85 30.6706 306.287 30.5156V34.4121C305.704 34.6673 305.084 34.8724 304.428 35.0273C303.781 35.1914 302.951 35.2734 301.939 35.2734C300.937 35.2734 300.053 35.1185 299.287 34.8086C298.521 34.4896 297.924 33.9427 297.496 33.168C297.077 32.3841 296.867 31.2949 296.867 29.9004V23.5156H294.994V21.3418L297.373 19.6602L298.754 16.4062H302.254V19.5098H306.055V23.5156H302.254V29.5449C302.254 30.0462 302.382 30.4245 302.637 30.6797C302.892 30.9258 303.247 31.0488 303.703 31.0488ZM307.121 19.5098H312.754L315.379 28.3965C315.415 28.5241 315.452 28.6836 315.488 28.875C315.525 29.0573 315.557 29.2533 315.584 29.4629C315.611 29.6725 315.63 29.8776 315.639 30.0781H315.748C315.794 29.7044 315.844 29.3809 315.898 29.1074C315.962 28.8249 316.021 28.597 316.076 28.4238L318.77 19.5098H324.225L318.1 35.9844C317.626 37.2422 317.074 38.2949 316.445 39.1426C315.826 39.9993 315.055 40.6419 314.135 41.0703C313.223 41.5078 312.089 41.7266 310.73 41.7266C310.238 41.7266 309.814 41.6992 309.459 41.6445C309.113 41.599 308.807 41.5488 308.543 41.4941V37.2969C308.743 37.3333 308.99 37.3698 309.281 37.4062C309.573 37.4427 309.878 37.4609 310.197 37.4609C310.79 37.4609 311.268 37.3424 311.633 37.1055C312.007 36.8685 312.312 36.554 312.549 36.1621C312.786 35.7793 312.991 35.3646 313.164 34.918L313.219 34.7812L307.121 19.5098Z" fill="black"/>
<path d="M139.773 12.767V36.6875H137.386V12.767H139.773Z" fill="black"/>
<defs>
<clipPath id="clip0_14779_31223">
<rect width="123.882" height="37.1645" fill="white" transform="translate(0 6)"/>
</clipPath>
</defs>
</svg>
