<svg width="26" height="10" viewBox="0 0 26 10" fill="none" xmlns="http://www.w3.org/2000/svg">
<path d="M5.2148 6.34366C4.94048 6.1671 4.64418 6.02896 4.33383 5.93295C3.96458 5.81631 3.58877 5.72256 3.20844 5.65222C2.96804 5.61213 2.73003 5.55833 2.49552 5.49106C2.3122 5.42867 2.16962 5.36629 2.07286 5.28831C1.9871 5.24 1.91649 5.16791 1.86917 5.08035C1.82931 4.99234 1.80847 4.89659 1.80807 4.79962C1.80697 4.70189 1.82973 4.60541 1.87427 4.51889C1.92609 4.42142 2.00146 4.3391 2.09323 4.27975C2.20821 4.19396 2.33767 4.13051 2.47515 4.09259C2.65796 4.04397 2.84644 4.02123 3.0353 4.025C3.24102 4.02114 3.44589 4.05278 3.64128 4.11858C3.79164 4.16907 3.93028 4.25046 4.04866 4.35773C4.13546 4.43534 4.20492 4.53108 4.25236 4.63846C4.29815 4.7412 4.32077 4.85313 4.31855 4.96598C4.31842 4.97694 4.32043 4.98782 4.32448 4.99798C4.32852 5.00813 4.33452 5.01736 4.34211 5.02511C4.34971 5.03286 4.35874 5.03898 4.36869 5.04311C4.37864 5.04724 4.38929 5.0493 4.40003 5.04916H5.8717C5.88243 5.0493 5.89309 5.04724 5.90304 5.04311C5.91299 5.03898 5.92202 5.03286 5.92962 5.02511C5.93721 5.01736 5.9432 5.00813 5.94725 4.99798C5.9513 4.98782 5.95331 4.97694 5.95318 4.96598C5.95655 4.65721 5.88666 4.3522 5.74948 4.07699C5.60563 3.8001 5.40606 3.55738 5.16387 3.36476C4.88677 3.14907 4.57236 2.98857 4.23708 2.89167C3.84384 2.77258 3.43526 2.71474 3.02512 2.72012C2.63325 2.71312 2.24287 2.77106 1.86917 2.89167C1.54851 2.98657 1.24802 3.14172 0.983118 3.34917C0.74356 3.52909 0.546864 3.76188 0.40769 4.0302C0.273778 4.28426 0.203785 4.5683 0.203999 4.85681C0.198088 5.13941 0.268564 5.41822 0.40769 5.66262C0.550313 5.896 0.739427 6.09616 0.962749 6.25007C1.22263 6.43436 1.50513 6.58293 1.80297 6.69197C2.1528 6.81557 2.50998 6.91629 2.87235 6.9935C3.12913 7.03828 3.38262 7.10081 3.6311 7.18066C3.79763 7.22961 3.9582 7.29763 4.10977 7.38341C4.20081 7.44484 4.27875 7.52441 4.33892 7.61735C4.38468 7.69964 4.40756 7.7931 4.40512 7.88769C4.40606 7.97649 4.38504 8.06411 4.34402 8.14243C4.29881 8.22925 4.23427 8.30404 4.1556 8.36077C4.02897 8.45577 3.8854 8.52464 3.73294 8.56352C3.52173 8.61879 3.30424 8.64502 3.08623 8.64151C2.90516 8.64016 2.72456 8.62276 2.54644 8.58952C2.3816 8.55824 2.22424 8.49468 2.08305 8.40236C1.945 8.32304 1.82791 8.21064 1.74187 8.07484C1.65269 7.92709 1.60025 7.75933 1.5891 7.58616C1.58923 7.5752 1.58722 7.56432 1.58317 7.55416C1.57913 7.54401 1.57313 7.53478 1.56554 7.52703C1.55795 7.51928 1.54891 7.51316 1.53896 7.50903C1.52902 7.5049 1.51836 7.50284 1.50762 7.50298H0.0817853C0.059589 7.50189 0.0377959 7.5093 0.0206789 7.52377C0.0132835 7.53219 0.0076585 7.54208 0.00415486 7.55281C0.000651214 7.56354 -0.000657788 7.57489 0.000308612 7.58616C0.00108451 7.8878 0.0708327 8.18509 0.203999 8.45435C0.350398 8.7458 0.555112 9.00261 0.804888 9.20817C1.08944 9.44214 1.41405 9.62018 1.76223 9.73325C2.18331 9.87177 2.62348 9.94023 3.06586 9.936C3.47153 9.94004 3.87585 9.88757 4.26763 9.78004C4.60005 9.6914 4.91521 9.54547 5.19952 9.34854C5.44973 9.17383 5.65709 8.94255 5.8055 8.6727C5.9497 8.40705 6.02507 8.10822 6.02447 7.80451C6.02447 7.47698 5.95827 7.19105 5.82077 6.96231C5.65463 6.72248 5.44971 6.51328 5.2148 6.34366Z" fill="#645AFF"/>
<path d="M12.1455 3.68175C11.8818 3.3751 11.5548 3.13186 11.1881 2.96952C10.7757 2.79304 10.3317 2.70628 9.88452 2.71478C9.45757 2.71131 9.03453 2.79804 8.642 2.96952C8.25453 3.13604 7.90578 3.38404 7.61845 3.69735C7.3167 4.02582 7.07983 4.41062 6.92081 4.83068C6.74899 5.30105 6.66438 5.79996 6.67129 6.30193V6.55667C6.66774 7.01225 6.75074 7.46422 6.91572 7.88755C7.07162 8.28954 7.30743 8.65419 7.60827 8.9585C7.91738 9.26783 8.2846 9.5101 8.68783 9.67073C9.12756 9.84526 9.59608 9.93175 10.0678 9.92547C10.7298 9.92547 11.2951 9.7955 11.7687 9.51996C12.2321 9.25483 12.5885 8.9533 12.8177 8.61538C12.8279 8.5979 12.8328 8.57774 12.8319 8.55741C12.831 8.53708 12.8243 8.51747 12.8126 8.50101L12.0233 7.72639C12.0142 7.71846 12.0037 7.71251 11.9923 7.70894C11.9809 7.70536 11.9689 7.70422 11.9571 7.70559C11.9338 7.7085 11.9122 7.71952 11.896 7.73679C11.698 7.99513 11.4386 8.19738 11.1423 8.32425C10.8313 8.46473 10.4945 8.53563 10.1544 8.5322C9.91264 8.53365 9.67269 8.48959 9.44658 8.40223C9.23662 8.32111 9.04701 8.19324 8.89152 8.02792C8.73878 7.88214 8.61287 7.70958 8.51978 7.51844C8.42712 7.31204 8.36368 7.09323 8.33137 6.86859H12.8482C12.859 6.86873 12.8696 6.86668 12.8796 6.86254C12.8895 6.85841 12.8985 6.85229 12.9061 6.84454C12.9137 6.83679 12.9197 6.82756 12.9238 6.81741C12.9278 6.80725 12.9298 6.79638 12.9297 6.78541V6.14077C12.9338 5.67551 12.8668 5.21245 12.7311 4.76829C12.605 4.37154 12.4063 4.00283 12.1455 3.68175ZM8.36193 5.60529C8.40301 5.40858 8.46446 5.21688 8.54525 5.03343C8.63081 4.84846 8.74422 4.67831 8.88134 4.52915C9.00984 4.39693 9.16195 4.29105 9.32946 4.21722C9.50273 4.14615 9.6876 4.10911 9.87433 4.10805C10.0864 4.10103 10.2971 4.14371 10.4905 4.23282C10.6555 4.30532 10.8032 4.41351 10.9233 4.54994C11.0444 4.69066 11.1393 4.85274 11.2034 5.02823C11.2671 5.2065 11.2998 5.39474 11.3002 5.5845V5.60009H8.36193V5.60529Z" fill="#645AFF"/>
<path d="M19.1269 3.68175C18.8632 3.3751 18.5363 3.13186 18.1696 2.96952C17.7571 2.79304 17.3131 2.70628 16.866 2.71478C16.439 2.71131 16.016 2.79804 15.6234 2.96952C15.236 3.13604 14.8872 3.38404 14.5999 3.69735C14.2981 4.02582 14.0613 4.41062 13.9023 4.83068C13.7304 5.30105 13.6458 5.79996 13.6527 6.30193V6.55667C13.6492 7.01225 13.7322 7.46422 13.8972 7.88755C14.0531 8.28954 14.2889 8.65419 14.5897 8.9585C14.8988 9.26783 15.266 9.5101 15.6693 9.67073C16.109 9.84526 16.5775 9.93175 17.0493 9.92547C17.7113 9.92547 18.2765 9.7955 18.7501 9.51996C19.2135 9.25483 19.57 8.9533 19.7991 8.61538C19.8093 8.5979 19.8143 8.57774 19.8134 8.55741C19.8125 8.53708 19.8057 8.51747 19.794 8.50101L19.0047 7.72639C18.9957 7.71846 18.9851 7.71251 18.9737 7.70894C18.9623 7.70536 18.9504 7.70422 18.9385 7.70559C18.9152 7.7085 18.8936 7.71952 18.8774 7.73679C18.6795 7.99513 18.42 8.19738 18.1237 8.32425C17.8128 8.46473 17.4759 8.53563 17.1358 8.5322C16.8941 8.53365 16.6541 8.48959 16.428 8.40223C16.2181 8.32111 16.0284 8.19324 15.873 8.02792C15.7202 7.88214 15.5943 7.70958 15.5012 7.51844C15.4086 7.31204 15.3451 7.09323 15.3128 6.86859H19.8195C19.8302 6.86873 19.8409 6.86668 19.8508 6.86254C19.8608 6.85841 19.8698 6.85229 19.8774 6.84454C19.885 6.83679 19.891 6.82756 19.895 6.81741C19.8991 6.80725 19.9011 6.79638 19.9009 6.78541V6.14077C19.9051 5.67551 19.8381 5.21245 19.7024 4.76829C19.586 4.36945 19.3901 3.99951 19.1269 3.68175ZM15.3485 5.60529C15.3895 5.40858 15.451 5.21688 15.5318 5.03343C15.6173 4.84846 15.7308 4.67831 15.8679 4.52915C15.9964 4.39693 16.1485 4.29105 16.316 4.21722C16.4893 4.14615 16.6741 4.10911 16.8609 4.10805C17.0729 4.10103 17.2837 4.14371 17.477 4.23282C17.6421 4.30532 17.7898 4.41351 17.9099 4.54994C18.0309 4.69066 18.1258 4.85274 18.1899 5.02823C18.2536 5.2065 18.2864 5.39474 18.2867 5.5845V5.60009H15.3485V5.60529Z" fill="#645AFF"/>
<path d="M25.3443 8.46498H23.5977V0.172956C23.5967 0.14433 23.5851 0.117157 23.5652 0.0969023C23.5454 0.0766477 23.5188 0.0648143 23.4907 0.0637817H19.9058C19.8777 0.0648143 19.8511 0.0766477 19.8313 0.0969023C19.8114 0.117157 19.7998 0.14433 19.7988 0.172956V1.42066C19.7998 1.44929 19.8114 1.47646 19.8313 1.49671C19.8511 1.51697 19.8777 1.5288 19.9058 1.52983H21.907V8.47538H20.5576C20.5295 8.47641 20.5029 8.48825 20.4831 8.5085C20.4632 8.52876 20.4517 8.55593 20.4506 8.58455V9.82186C20.4517 9.85049 20.4632 9.87766 20.4831 9.89792C20.5029 9.91817 20.5295 9.93 20.5576 9.93104H25.3392C25.3673 9.93 25.3939 9.91817 25.4137 9.89792C25.4336 9.87766 25.4451 9.85049 25.4462 9.82186V8.58455C25.4484 8.56965 25.4474 8.55444 25.4433 8.53996C25.4392 8.52549 25.432 8.5121 25.4223 8.50073C25.4126 8.48935 25.4006 8.48027 25.3872 8.47409C25.3737 8.46792 25.3591 8.46481 25.3443 8.46498Z" fill="#645AFF"/>
</svg>
